<svg width="25" height="24" viewBox="0 0 25 24" fill="none" xmlns="http://www.w3.org/2000/svg">
<path fill-rule="evenodd" clip-rule="evenodd" d="M21.8161 2.68396C20.6729 1.54338 19.124 0.902832 17.5091 0.902832C15.8942 0.902832 14.3453 1.54338 13.2021 2.68396L11.1491 4.73596C10.9551 4.94475 10.8496 5.22064 10.8549 5.5056C10.8601 5.79056 10.9756 6.06238 11.1771 6.26391C11.3787 6.46544 11.6505 6.58097 11.9355 6.5862C12.2204 6.59143 12.4963 6.48596 12.7051 6.29196L14.7581 4.23996C15.4883 3.51145 16.4776 3.10232 17.5091 3.10232C18.5406 3.10232 19.5299 3.51145 20.2601 4.23996C20.6226 4.60035 20.91 5.02905 21.1057 5.50127C21.3014 5.97348 21.4014 6.47981 21.4001 6.99096C21.4015 7.50212 21.3014 8.00847 21.1058 8.48069C20.9101 8.95291 20.6226 9.38161 20.2601 9.74196L16.6591 13.343C15.1901 14.813 12.6271 14.813 11.1571 13.343C10.9138 13.1004 10.7036 12.8267 10.5321 12.529C10.3868 12.2759 10.1469 12.091 9.86518 12.0149C9.58351 11.9388 9.28312 11.9776 9.0301 12.123C8.77708 12.2683 8.59216 12.5082 8.51602 12.7899C8.43988 13.0716 8.47876 13.3719 8.6241 13.625C8.8911 14.088 9.2191 14.517 9.6011 14.899C10.1655 15.4662 10.8367 15.9159 11.576 16.2222C12.3153 16.5284 13.1079 16.685 13.9081 16.683C14.7083 16.6851 15.501 16.5285 16.2403 16.2223C16.9796 15.9161 17.6508 15.4663 18.2151 14.899L21.8161 11.299C22.3836 10.7343 22.8335 10.0628 23.1397 9.32314C23.4459 8.58351 23.6024 7.79048 23.6001 6.98996C23.6022 6.18976 23.4457 5.39709 23.1394 4.65779C22.8332 3.9185 22.3834 3.24728 21.8161 2.68296" fill="#616161"/>
<path fill-rule="evenodd" clip-rule="evenodd" d="M12.295 17.7079L10.242 19.7609C9.51159 20.4889 8.52234 20.8977 7.49104 20.8977C6.45975 20.8977 5.4705 20.4889 4.74004 19.7609C4.37778 19.4004 4.09052 18.9716 3.89485 18.4995C3.69918 18.0273 3.59899 17.521 3.60004 17.0099C3.60004 15.9709 4.00504 14.9939 4.74004 14.2599L8.34104 10.6579C8.76401 10.2359 9.27841 9.91675 9.84444 9.72532C10.4105 9.53388 11.013 9.47524 11.6053 9.55393C12.1976 9.63262 12.7639 9.84654 13.2603 10.1791C13.7567 10.5117 14.17 10.9541 14.468 11.4719C14.54 11.5972 14.6359 11.7071 14.7504 11.7953C14.8648 11.8835 14.9955 11.9483 15.135 11.986C15.2744 12.0237 15.42 12.0336 15.5632 12.015C15.7065 11.9965 15.8448 11.9499 15.97 11.8779C16.0953 11.806 16.2052 11.71 16.2934 11.5956C16.3816 11.4812 16.4464 11.3505 16.4841 11.211C16.5218 11.0715 16.5317 10.926 16.5131 10.7827C16.4946 10.6394 16.448 10.5012 16.376 10.3759C15.9091 9.56559 15.2621 8.87348 14.4851 8.3531C13.708 7.83273 12.8216 7.49803 11.8946 7.37488C10.9675 7.25174 10.0245 7.34344 9.13852 7.64291C8.25254 7.94237 7.4473 8.44158 6.78504 9.10193L3.18404 12.7029C2.6168 13.2673 2.16706 13.9385 1.86085 14.6778C1.55463 15.4171 1.39801 16.2097 1.40004 17.0099C1.40004 18.6369 2.03404 20.1669 3.18404 21.3169C3.74907 21.8831 4.4205 22.3319 5.15967 22.6376C5.89884 22.9432 6.69117 23.0997 7.49104 23.0979C9.05104 23.0979 10.61 22.5039 11.798 21.3179L13.851 19.2649C14.045 19.0561 14.1505 18.7803 14.1453 18.4953C14.1401 18.2103 14.0245 17.9385 13.823 17.737C13.6215 17.5354 13.3496 17.4199 13.0647 17.4147C12.7797 17.4095 12.5038 17.5149 12.295 17.7089" fill="#616161"/>
</svg>
