<svg width="18" height="18" viewBox="0 0 18 18" fill="none" xmlns="http://www.w3.org/2000/svg">
<path fill-rule="evenodd" clip-rule="evenodd" d="M8.36175 13.4967C8.4905 13.6238 8.65376 13.7103 8.83125 13.7454C9.00874 13.7805 9.19263 13.7627 9.36008 13.6942C9.4714 13.6483 9.57273 13.5812 9.65842 13.4967L14.4134 8.74167C14.5816 8.56906 14.6751 8.33715 14.6736 8.09613C14.6721 7.85511 14.5757 7.62438 14.4054 7.45389C14.235 7.28341 14.0043 7.18688 13.7633 7.18522C13.5223 7.18356 13.2903 7.27688 13.1176 7.445L9.92675 10.6367L9.92675 1.1825C9.92675 0.939386 9.83017 0.706229 9.65826 0.53432C9.48636 0.362412 9.2532 0.265834 9.01008 0.265834C8.76697 0.265834 8.53381 0.362412 8.3619 0.53432C8.18999 0.706229 8.09342 0.939386 8.09342 1.1825L8.09342 10.635L4.90258 7.44417C4.72342 7.265 4.48925 7.17583 4.25425 7.17583C4.07291 7.17577 3.89562 7.2295 3.74482 7.33022C3.59402 7.43095 3.47648 7.57413 3.40707 7.74167C3.33767 7.9092 3.31952 8.09356 3.35491 8.27142C3.39031 8.44927 3.47766 8.61264 3.60592 8.74083L8.36175 13.4967V13.4967ZM1.18342 17.25L16.8368 17.25C17.0799 17.25 17.313 17.1534 17.4849 16.9815C17.6568 16.8096 17.7534 16.5764 17.7534 16.3333C17.7534 16.0902 17.6568 15.8571 17.4849 15.6852C17.313 15.5132 17.0799 15.4167 16.8368 15.4167L1.18258 15.4167C0.939468 15.4167 0.706311 15.5132 0.534403 15.6852C0.362494 15.8571 0.265917 16.0902 0.265917 16.3333C0.265917 16.5764 0.362495 16.8096 0.534403 16.9815C0.706311 17.1534 0.939469 17.25 1.18258 17.25" fill="#616161"/>
</svg>
