<svg width="20" height="20" viewBox="0 0 20 20" fill="none" xmlns="http://www.w3.org/2000/svg">
<path fill-rule="evenodd" clip-rule="evenodd" d="M0.916748 10.0099C0.916748 9.50367 1.32715 9.09326 1.83341 9.09326H11.6076C12.1138 9.09326 12.5242 9.50367 12.5242 10.0099C12.5242 10.5162 12.1138 10.9266 11.6076 10.9266H1.83341C1.32715 10.9266 0.916748 10.5162 0.916748 10.0099Z" fill="#616161"/>
<path fill-rule="evenodd" clip-rule="evenodd" d="M6.84255 5.00201C7.20047 5.36006 7.20035 5.94046 6.84231 6.29837L3.1299 10.0094L6.84243 13.7219C7.20041 14.0799 7.20041 14.6603 6.84243 15.0182C6.48445 15.3762 5.90405 15.3762 5.54607 15.0182L1.18523 10.6574C1.0133 10.4855 0.916725 10.2523 0.916748 10.0091C0.916771 9.766 1.01339 9.53282 1.18536 9.36093L5.54619 5.00176C5.90424 4.64385 6.48464 4.64396 6.84255 5.00201Z" fill="#616161"/>
<path fill-rule="evenodd" clip-rule="evenodd" d="M11.8642 3.93343C11.5769 3.93343 11.3013 4.04757 11.0981 4.25073C10.895 4.4539 10.7808 4.72945 10.7808 5.01676V6.42843C10.7808 6.93469 10.3704 7.3451 9.86418 7.3451C9.35792 7.3451 8.94751 6.93469 8.94751 6.42843V5.01676C8.94751 4.24322 9.2548 3.50135 9.80178 2.95437C10.3488 2.40739 11.0906 2.1001 11.8642 2.1001H15.5708C16.3444 2.1001 17.0863 2.40739 17.6332 2.95437C18.1802 3.50135 18.4875 4.24322 18.4875 5.01676V15.0043C18.4872 15.7776 18.1798 16.5195 17.6328 17.0663C17.0859 17.613 16.3442 17.9201 15.5708 17.9201H11.8642C11.0906 17.9201 10.3488 17.6128 9.80178 17.0658C9.2548 16.5188 8.94751 15.777 8.94751 15.0034V13.5951C8.94751 13.0888 9.35792 12.6784 9.86418 12.6784C10.3704 12.6784 10.7808 13.0888 10.7808 13.5951V15.0034C10.7808 15.2907 10.895 15.5663 11.0981 15.7695C11.3013 15.9726 11.5769 16.0868 11.8642 16.0868H15.5708C15.8581 16.0868 16.1336 15.9727 16.3367 15.7696C16.5399 15.5666 16.6541 15.2911 16.6542 15.0039V5.01676C16.6542 4.72944 16.54 4.4539 16.3369 4.25073C16.1337 4.04757 15.8582 3.93343 15.5708 3.93343H11.8642Z" fill="#616161"/>
</svg>
