<svg width="20" height="20" viewBox="0 0 20 20" fill="none" xmlns="http://www.w3.org/2000/svg">
<path fill-rule="evenodd" clip-rule="evenodd" d="M9.99991 13.056C9.59867 13.056 9.20135 12.977 8.83066 12.8234C8.45995 12.6699 8.12313 12.4448 7.83941 12.1611C7.55568 11.8774 7.33062 11.5405 7.17707 11.1698C7.02353 10.7991 6.9445 10.4018 6.9445 10.0006C6.9445 9.59934 7.02353 9.20202 7.17707 8.83132C7.33062 8.46062 7.55568 8.12379 7.83941 7.84007C8.12313 7.55635 8.45995 7.33129 8.83066 7.17774C9.20135 7.02419 9.59867 6.94516 9.99991 6.94516C10.8103 6.94516 11.5874 7.26707 12.1604 7.84007C12.7334 8.41307 13.0553 9.19023 13.0553 10.0006C13.0553 10.8109 12.7334 11.5881 12.1604 12.1611C11.5874 12.7341 10.8103 13.056 9.99991 13.056ZM17.5274 11.6268C17.1083 11.1928 16.8743 10.6127 16.8749 10.0093V9.99183C16.8743 9.38842 17.1083 8.80839 17.5274 8.37433L18.3099 7.566C18.6316 7.23266 18.6932 6.726 18.4624 6.32516L17.4141 4.51016C17.3016 4.31478 17.1284 4.16141 16.9209 4.07329C16.7134 3.98517 16.4828 3.9671 16.2641 4.02183L15.1682 4.29516C14.5798 4.4425 13.957 4.35366 13.4332 4.04766L13.4182 4.03933C12.9024 3.73951 12.5227 3.25146 12.3591 2.67766L12.0457 1.58683C11.984 1.3699 11.8532 1.17901 11.6732 1.04308C11.4932 0.907141 11.2738 0.833567 11.0482 0.833496H8.95158C8.48908 0.833496 8.08075 1.141 7.95408 1.58683L7.61658 2.761C7.46839 3.28576 7.12006 3.73135 6.64658 4.00183C6.59767 4.02918 6.54933 4.05751 6.50158 4.08683C6.0265 4.36974 5.45873 4.45304 4.92241 4.3185L3.73491 4.02183C3.51629 3.96717 3.28581 3.98518 3.07833 4.07313C2.87085 4.16108 2.69765 4.3142 2.58491 4.50933L1.53741 6.32516C1.42474 6.52052 1.37869 6.74724 1.4062 6.97108C1.43371 7.19492 1.53329 7.40373 1.68991 7.566L2.47241 8.37433C2.89158 8.8085 3.12575 9.3885 3.12575 9.991V10.0093C3.12575 10.6127 2.89158 11.1927 2.47241 11.6268L2.05325 12.0602C1.79185 12.3304 1.62558 12.6785 1.57957 13.0516C1.53356 13.4248 1.61032 13.8028 1.79825 14.1285L2.58575 15.491C2.81741 15.8927 3.28575 16.0918 3.73575 15.9793L4.92325 15.6827C5.45956 15.5481 6.02734 15.6314 6.50241 15.9143C6.54991 15.9435 6.59825 15.9718 6.64741 15.9993C7.12158 16.2677 7.46741 16.7152 7.61741 17.2402L7.95408 18.4143C8.08075 18.8602 8.48908 19.1668 8.95158 19.1668H11.0482C11.5107 19.1668 11.9191 18.8602 12.0457 18.4143L12.3824 17.2402C12.5324 16.7152 12.8782 16.2677 13.3524 15.9993C13.4016 15.9718 13.4499 15.9435 13.4974 15.9143C13.9725 15.6314 14.5403 15.5481 15.0766 15.6827L16.2641 15.9793C16.4827 16.034 16.7132 16.016 16.9207 15.928C17.1281 15.8401 17.3013 15.687 17.4141 15.4918L18.4624 13.676C18.5751 13.4806 18.6211 13.2539 18.5936 13.0301C18.5661 12.8062 18.4665 12.5974 18.3099 12.4352L17.5266 11.6268H17.5274Z" fill="#616161"/>
</svg>
