<svg width="18" height="16" viewBox="0 0 18 16" fill="none" xmlns="http://www.w3.org/2000/svg">
<path fill-rule="evenodd" clip-rule="evenodd" d="M15.8942 6.33337L17.1309 5.09587C17.203 5.02683 17.2606 4.94408 17.3003 4.85248C17.34 4.76088 17.3611 4.66227 17.3622 4.56243C17.3633 4.46259 17.3445 4.36354 17.3068 4.27107C17.2691 4.17861 17.2133 4.09461 17.1428 4.02398C17.0722 3.95335 16.9882 3.89752 16.8958 3.85977C16.8034 3.82202 16.7043 3.80311 16.6045 3.80414C16.5047 3.80517 16.406 3.82612 16.3144 3.86577C16.2228 3.90542 16.14 3.96297 16.0709 4.03504L14.8334 5.27254L13.5959 4.03504C13.4532 3.90431 13.2656 3.83369 13.0722 3.8379C12.8788 3.84211 12.6944 3.92082 12.5576 4.05763C12.4208 4.19444 12.3421 4.37878 12.3379 4.57222C12.3337 4.76565 12.4043 4.95324 12.535 5.09587L13.7725 6.33337L12.535 7.57087C12.4654 7.64053 12.4101 7.72322 12.3724 7.81423C12.3347 7.90524 12.3153 8.00278 12.3153 8.10129C12.3153 8.1998 12.3347 8.29734 12.3724 8.38835C12.4101 8.47936 12.4654 8.56205 12.535 8.63171C12.6047 8.70136 12.6874 8.75661 12.7784 8.79431C12.8694 8.83201 12.9669 8.85141 13.0655 8.85141C13.164 8.85141 13.2615 8.83201 13.3525 8.79431C13.4435 8.75661 13.5262 8.70136 13.5959 8.63171L14.8334 7.39421L16.0709 8.63171C16.2125 8.76733 16.4017 8.84206 16.5978 8.83989C16.7939 8.83771 16.9814 8.75879 17.12 8.62005C17.2587 8.48131 17.3374 8.29379 17.3395 8.09767C17.3415 7.90155 17.2666 7.71244 17.1309 7.57087L15.8942 6.33337ZM7.33337 7.54671C8.29566 7.54671 9.21854 7.16444 9.89899 6.48399C10.5794 5.80355 10.9617 4.88067 10.9617 3.91837C10.9617 2.95608 10.5794 2.0332 9.89899 1.35275C9.21854 0.672309 8.29566 0.290039 7.33337 0.290039C6.37108 0.290039 5.44819 0.672309 4.76775 1.35275C4.08731 2.0332 3.70504 2.95608 3.70504 3.91837C3.70504 4.88067 4.08731 5.80355 4.76775 6.48399C5.44819 7.16444 6.37108 7.54671 7.33337 7.54671M7.33337 8.65671C2.1092 8.65671 0.0783691 11.9809 0.0783691 13.5275C0.0783691 15.0734 4.40254 15.485 7.33337 15.485C10.2642 15.485 14.5884 15.0734 14.5884 13.5267C14.5884 11.9809 12.5575 8.65671 7.33337 8.65671" fill="#616161"/>
</svg>
