<svg width="20" height="20" viewBox="0 0 20 20" fill="none" xmlns="http://www.w3.org/2000/svg">
<path fill-rule="evenodd" clip-rule="evenodd" d="M16.2501 1.6665H3.75008C3.52907 1.6665 3.31711 1.7543 3.16083 1.91058C3.00455 2.06686 2.91675 2.27882 2.91675 2.49984V17.4998C2.91675 17.7209 3.00455 17.9328 3.16083 18.0891C3.31711 18.2454 3.52907 18.3332 3.75008 18.3332H10.8334V14.1665C10.8334 13.0182 11.7684 12.0832 12.9167 12.0832H17.0834V2.49984C17.0834 2.27882 16.9956 2.06686 16.8393 1.91058C16.6831 1.7543 16.4711 1.6665 16.2501 1.6665Z" fill="#616161"/>
<path fill-rule="evenodd" clip-rule="evenodd" d="M12.0835 14.1663V18.333L17.0835 13.333H12.9168C12.6958 13.333 12.4839 13.4208 12.3276 13.5771C12.1713 13.7334 12.0835 13.9453 12.0835 14.1663Z" fill="#616161"/>
</svg>
