<svg width="25" height="24" viewBox="0 0 25 24" fill="none" xmlns="http://www.w3.org/2000/svg">
<path d="M11.71 15.4002C11.92 15.6102 12.21 15.7202 12.49 15.7202C12.77 15.7202 13.05 15.6102 13.27 15.4002L18.5 10.1602C18.93 9.73018 18.93 9.03018 18.5 8.60018C18.07 8.17018 17.37 8.17018 16.94 8.60018L13.59 11.9502V2.78018C13.59 2.17018 13.1 1.68018 12.49 1.68018C11.88 1.68018 11.39 2.17018 11.39 2.78018V11.9602L8.02996 8.61018C7.59996 8.18018 6.89996 8.18018 6.46996 8.61018C6.03996 9.04018 6.03996 9.74018 6.46996 10.1702L11.71 15.4002Z" fill="#E0E0E0"/>
<path d="M21.88 13.0903C21.27 13.0903 20.78 13.5803 20.78 14.1903V18.4003C20.78 19.1203 20.2 19.7003 19.48 19.7003H5.5C4.78 19.7003 4.2 19.1203 4.2 18.4003V14.1903C4.2 13.5803 3.71 13.0903 3.1 13.0903C2.49 13.0903 2 13.5803 2 14.1903V18.4003C2 20.3303 3.57 21.9003 5.5 21.9003H19.48C21.41 21.9003 22.98 20.3303 22.98 18.4003V14.1903C22.98 13.5803 22.49 13.0903 21.88 13.0903Z" fill="#E0E0E0"/>
</svg>
