<svg width="16" height="16" viewBox="0 0 16 16" fill="none" xmlns="http://www.w3.org/2000/svg">
<rect width="16" height="16" rx="2" fill="#FFE54A"/>
<g clip-path="url(#clip0_324_2633)">
<path d="M7.77161 3.52637C4.88618 3.52637 2.54712 5.37066 2.54712 7.64568C2.54712 9.11652 3.525 10.4071 4.996 11.1359C4.91597 11.4119 4.48174 12.9114 4.46446 13.0292C4.46446 13.0292 4.45406 13.1177 4.51138 13.1515C4.5687 13.1852 4.63611 13.159 4.63611 13.159C4.80048 13.1361 6.5422 11.9126 6.84366 11.7002C7.14482 11.7428 7.45493 11.765 7.77161 11.765C10.657 11.765 12.9961 9.92074 12.9961 7.64568C12.9961 5.37066 10.657 3.52637 7.77161 3.52637Z" fill="black"/>
</g>
<defs>
<clipPath id="clip0_324_2633">
<rect width="10.9714" height="10.9714" fill="white" transform="translate(2.28564 2.74316)"/>
</clipPath>
</defs>
</svg>
