<svg width="11" height="18" viewBox="0 0 11 18" fill="none" xmlns="http://www.w3.org/2000/svg">
<path fill-rule="evenodd" clip-rule="evenodd" d="M8.87495 17.1001C8.69769 17.1002 8.52216 17.0653 8.35844 16.9973C8.19472 16.9293 8.04604 16.8297 7.92095 16.7041L1.17095 9.9541C1.04555 9.82873 0.946067 9.67989 0.878196 9.51607C0.810324 9.35225 0.775391 9.17667 0.775391 8.99935C0.775391 8.82203 0.810324 8.64644 0.878196 8.48262C0.946067 8.31881 1.04555 8.16996 1.17095 8.0446L7.92095 1.2946C8.04533 1.16487 8.19436 1.06129 8.3593 0.98992C8.52424 0.918551 8.70177 0.880833 8.88148 0.878978C9.06119 0.877124 9.23946 0.91117 9.40584 0.97912C9.57221 1.04707 9.72335 1.14756 9.85038 1.27469C9.97741 1.40182 10.0778 1.55303 10.1456 1.71946C10.2134 1.88589 10.2473 2.06419 10.2453 2.2439C10.2433 2.42361 10.2055 2.60111 10.134 2.76599C10.0625 2.93087 9.95877 3.07982 9.82895 3.2041L4.03445 9.0001L9.82895 14.7946C10.018 14.9833 10.1469 15.2239 10.1992 15.4859C10.2514 15.7478 10.2248 16.0194 10.1227 16.2663C10.0205 16.5131 9.84747 16.7241 9.62536 16.8725C9.40325 17.021 9.14209 17.1002 8.87495 17.1001Z" fill="#E0E0E0"/>
</svg>
