<svg width="25" height="24" viewBox="0 0 25 24" fill="current" xmlns="http://www.w3.org/2000/svg">
<path fill-rule="evenodd" clip-rule="evenodd" d="M15.875 20.1001C15.6977 20.1002 15.5222 20.0653 15.3584 19.9973C15.1947 19.9293 15.046 19.8297 14.921 19.7041L8.17095 12.9541C8.04555 12.8287 7.94607 12.6799 7.8782 12.5161C7.81032 12.3523 7.77539 12.1767 7.77539 11.9993C7.77539 11.822 7.81032 11.6464 7.8782 11.4826C7.94607 11.3188 8.04555 11.17 8.17095 11.0446L14.921 4.2946C15.0453 4.16487 15.1944 4.06129 15.3593 3.98992C15.5242 3.91855 15.7018 3.88083 15.8815 3.87898C16.0612 3.87712 16.2395 3.91117 16.4058 3.97912C16.5722 4.04707 16.7233 4.14756 16.8504 4.27469C16.9774 4.40182 17.0778 4.55303 17.1456 4.71946C17.2134 4.88589 17.2473 5.06419 17.2453 5.2439C17.2433 5.42361 17.2055 5.60111 17.134 5.76599C17.0625 5.93087 16.9588 6.07982 16.829 6.2041L11.0345 12.0001L16.829 17.7946C17.018 17.9833 17.1469 18.2239 17.1992 18.4859C17.2514 18.7478 17.2248 19.0194 17.1227 19.2663C17.0205 19.5131 16.8475 19.7241 16.6254 19.8725C16.4032 20.021 16.1421 20.1002 15.875 20.1001Z" fill="#E0E0E0"/>
</svg>
