<svg width="43" height="34" viewBox="0 0 43 34" fill="none" xmlns="http://www.w3.org/2000/svg">
<path d="M0.54 20.32H2.74V18.12H9.34V20.32H11.54V18.12H20.34V22.52H13.74V20.32H11.54V24.72H13.74V26.92H15.94V24.72H20.34V29.12H18.14V31.32H13.74V33.52H29.14V31.32H24.74V29.12H22.54V24.72H26.94V26.92H29.14V24.72H31.34V20.32H29.14V22.52H22.54V18.12H31.34V20.32H33.54V18.12H40.14V20.32H42.34V13.72H40.14V15.92H33.54V13.72H31.34V15.92H22.54V11.52H29.14V13.72H31.34V9.32H29.14V7.12H26.94V9.32H22.54V4.92H24.74V2.72H29.14V0.519999H13.74V2.72H18.14V4.92H20.34V9.32H15.94V7.12H13.74V9.32H11.54V13.72H13.74V11.52H20.34V15.92H11.54V13.72H9.34V15.92H2.74V13.72H0.54V20.32ZM2.74 24.72H4.94V20.32H2.74V24.72ZM2.74 13.72H4.94V9.32H2.74V13.72ZM4.94 26.92H7.14V24.72H4.94V26.92ZM4.94 9.32H7.14V7.12H4.94V9.32ZM7.14 29.12H9.34V26.92H7.14V29.12ZM7.14 7.12H9.34V4.92H7.14V7.12ZM9.34 31.32H13.74V29.12H9.34V31.32ZM9.34 26.92H11.54V24.72H9.34V26.92ZM9.34 9.32H11.54V7.12H9.34V9.32ZM9.34 4.92H13.74V2.72H9.34V4.92ZM15.94 29.12H18.14V26.92H15.94V29.12ZM15.94 7.12H18.14V4.92H15.94V7.12ZM24.74 29.12H26.94V26.92H24.74V29.12ZM24.74 7.12H26.94V4.92H24.74V7.12ZM29.14 31.32H33.54V29.12H29.14V31.32ZM29.14 4.92H33.54V2.72H29.14V4.92ZM31.34 26.92H33.54V24.72H31.34V26.92ZM31.34 9.32H33.54V7.12H31.34V9.32ZM33.54 29.12H35.74V26.92H33.54V29.12ZM33.54 7.12H35.74V4.92H33.54V7.12ZM35.74 26.92H37.94V24.72H35.74V26.92ZM35.74 9.32H37.94V7.12H35.74V9.32ZM37.94 24.72H40.14V20.32H37.94V24.72ZM37.94 13.72H40.14V9.32H37.94V13.72Z" fill="#FAFAFA"/>
</svg>
