<svg width="24" height="24" viewBox="0 0 24 24" fill="none" xmlns="http://www.w3.org/2000/svg">
<path fill-rule="evenodd" clip-rule="evenodd" d="M13.88 17.9402L13.88 6.0602C13.88 5.2402 14.44 4.5752 15.132 4.5752C15.824 4.5752 16.385 5.2402 16.385 6.0602L16.385 17.9402C16.385 18.7602 15.824 19.4252 15.132 19.4252C14.441 19.4252 13.879 18.7602 13.879 17.9402M7.61501 17.9402L7.61501 6.0602C7.61501 5.2402 8.17601 4.57519 8.86801 4.57519C9.55901 4.5752 10.121 5.2402 10.121 6.0602L10.121 17.9402C10.121 18.7602 9.55901 19.4252 8.86801 19.4252C8.17601 19.4252 7.61501 18.7602 7.61501 17.9402Z" fill="#E0E0E0"/>
</svg>
