<svg width="21" height="22" viewBox="0 0 21 22" fill="none" xmlns="http://www.w3.org/2000/svg">
<path d="M2.80002 11.3702V10.3602C2.80002 7.57017 5.07002 5.30017 7.86002 5.30017H15.45L14.89 5.86017C14.6646 6.0856 14.5379 6.39136 14.5379 6.71017C14.5379 7.02898 14.6646 7.33473 14.89 7.56017C15.1155 7.7856 15.4212 7.91225 15.74 7.91225C16.0588 7.91225 16.3646 7.7856 16.59 7.56017L19.2 4.95017C19.42 4.72017 19.55 4.42017 19.55 4.10017C19.55 3.78017 19.42 3.48017 19.2 3.25017L16.59 0.640167C16.4784 0.528544 16.3459 0.439999 16.2 0.379589C16.0542 0.319179 15.8979 0.288086 15.74 0.288086C15.5822 0.288086 15.4259 0.319179 15.28 0.379589C15.1342 0.439999 15.0016 0.528544 14.89 0.640167C14.6646 0.865601 14.5379 1.17136 14.5379 1.49017C14.5379 1.80898 14.6646 2.11473 14.89 2.34017L15.45 2.90017H7.86002C3.75002 2.90017 0.400024 6.25017 0.400024 10.3602V11.3702C0.400024 12.0302 0.940024 12.5702 1.60002 12.5702C2.26002 12.5702 2.80002 12.0402 2.80002 11.3702ZM19.4 9.43017C18.74 9.43017 18.2 9.97017 18.2 10.6302V11.6402C18.2 14.4302 15.93 16.7002 13.14 16.7002H5.55002L6.11002 16.1402C6.33546 15.9147 6.46211 15.609 6.46211 15.2902C6.46211 14.9714 6.33546 14.6656 6.11002 14.4402C5.88459 14.2147 5.57884 14.0881 5.26002 14.0881C4.94121 14.0881 4.63546 14.2147 4.41002 14.4402L1.80002 17.0502C1.57002 17.2702 1.45002 17.5802 1.45002 17.9002C1.45002 18.2202 1.58002 18.5202 1.80002 18.7502L4.41002 21.3602C4.63571 21.5851 4.94137 21.7115 5.26002 21.7115C5.57868 21.7115 5.88434 21.5851 6.11002 21.3602C6.58002 20.8902 6.58002 20.1302 6.11002 19.6602L5.55002 19.1002H13.14C17.25 19.1002 20.6 15.7502 20.6 11.6402V10.6302C20.6 9.96017 20.06 9.43017 19.4 9.43017Z" fill="#E0E0E0"/>
</svg>
