<svg width="10" height="18" viewBox="0 0 10 18" fill="none" xmlns="http://www.w3.org/2000/svg">
<path fill-rule="evenodd" clip-rule="evenodd" d="M1.625 17.0999C1.28 17.0999 0.935 16.9649 0.665 16.7099C0.413104 16.4569 0.271684 16.1145 0.271684 15.7574C0.271684 15.4004 0.413104 15.0579 0.665 14.8049L6.47 8.99994L0.665 3.20994C0.413104 2.95694 0.271684 2.61445 0.271684 2.25744C0.271684 1.90042 0.413104 1.55794 0.665 1.30494C0.918002 1.05304 1.26048 0.911621 1.6175 0.911621C1.97452 0.911621 2.317 1.05304 2.57 1.30494L9.32 8.05494C9.5719 8.30794 9.71332 8.65042 9.71332 9.00744C9.71332 9.36446 9.5719 9.70694 9.32 9.95994L2.57 16.7099C2.315 16.9649 1.97 17.0999 1.625 17.0999Z" fill='current'/>
</svg>
