<svg width="25" height="24" viewBox="0 0 25 24" fill="current" xmlns="http://www.w3.org/2000/svg">
<path fill-rule="evenodd" clip-rule="evenodd" d="M9.1248 20.0999C8.7798 20.0999 8.4348 19.9649 8.1648 19.7099C7.91291 19.4569 7.77148 19.1145 7.77148 18.7574C7.77148 18.4004 7.91291 18.0579 8.1648 17.8049L13.9698 11.9999L8.1648 6.20994C7.91291 5.95694 7.77148 5.61445 7.77148 5.25744C7.77148 4.90042 7.91291 4.55794 8.1648 4.30494C8.4178 4.05304 8.76028 3.91162 9.1173 3.91162C9.47432 3.91162 9.8168 4.05304 10.0698 4.30494L16.8198 11.0549C17.0717 11.3079 17.2131 11.6504 17.2131 12.0074C17.2131 12.3645 17.0717 12.7069 16.8198 12.9599L10.0698 19.7099C9.8148 19.9649 9.4698 20.0999 9.1248 20.0999Z" fill="#FFFFE0"/>
</svg>
