<svg width="27" height="39" viewBox="0 0 27 39" fill="none" xmlns="http://www.w3.org/2000/svg">
<path d="M16.4 20.92V18.92H18.4V16.92H20.4V14.92H22.4V12.92H24.4V6.92H26.4V0.92H0.4V6.92H2.4V12.92H4.4V14.92H6.4V16.92H8.4V18.92H10.4V20.92H8.4V22.92H6.4V24.92H4.4V26.92H2.4V32.92H0.4V38.92H26.4V32.92H24.4V26.92H22.4V24.92H20.4V22.92H18.4V20.92H16.4ZM4.4 36.92V34.92H22.4V36.92H4.4ZM4.4 32.92V28.92H6.4V26.92H8.4V24.92H10.4V22.92H12.4V16.92H10.4V14.92H8.4V12.92H6.4V10.92H4.4V6.92H22.4V10.92H20.4V12.92H18.4V14.92H16.4V16.92H14.4V22.92H16.4V24.92H18.4V26.92H20.4V28.92H22.4V32.92H16.96V31.96H15.92V32.92H14.96V31.96H13.92V32.92H12.96V31.96H11.92V32.92H10.96V31.96H9.92V32.92H4.4ZM4.4 4.92V2.92H22.4V4.92H4.4ZM10.96 31.96H11.92V30.92H10.96V31.96ZM10.96 12.52H11.92V11.56H10.96V12.52ZM11.92 30.92H12.96V29.96H11.92V30.92ZM11.92 13.56H12.96V12.52H11.92V13.56ZM12.96 31.96H13.92V30.92H12.96V31.96ZM12.96 26.52H13.92V25.56H12.96V26.52ZM12.96 14.52H13.92V13.56H12.96V14.52ZM12.96 12.52H13.92V11.56H12.96V12.52ZM13.92 30.92H14.96V29.96H13.92V30.92ZM13.92 13.56H14.96V12.52H13.92V13.56ZM14.96 31.96H15.92V30.92H14.96V31.96ZM14.96 12.52H15.92V11.56H14.96V12.52Z" fill="white"/>
</svg>
